<?xml version="1.0" encoding="UTF-8"?>
<svg width="100%" height="100%" viewBox="0 0 265 160" version="1.1"
    xmlns="http://www.w3.org/2000/svg">
    <style>
    path { fill: #000000; }
    @media (prefers-color-scheme: dark) {
      path { fill: #ffffff; }
    }
    </style>
    <g transform="matrix(0.699712,0,0,0.683415,-131.298,-175.717)">
        <path d="M532.45,351.53L480.688,286.35L378.348,257.116L290.567,279.057L217.462,344.854L187.646,456.674L248.919,475.756L378.389,490.139L507.899,468.549L561.915,458.912L532.45,351.53ZM324.89,347.694L438.45,364.538L378.677,478.088L324.89,347.694ZM325.507,340.538L378.14,267.171L436.628,357.023L325.507,340.538ZM449.987,357.476L479.37,296.187L522.12,349.632L449.987,357.476ZM524.561,356.566L505.491,455.289L449.983,364.684L524.561,356.566ZM443.495,354.433L386.515,266.898L473.535,291.761L443.495,354.433ZM319.915,336.038L297.294,284.761L369.681,266.667L319.915,336.038ZM313.759,339.839L230.38,342.866L291.017,288.292L313.759,339.839ZM312.946,347.038L250.676,458.788L225.125,350.218L312.946,347.038ZM263.141,451.148L365.421,464.753L372.664,482.308L253.144,469.081L263.141,451.148ZM444.191,368.988L501.414,462.379L384.824,481.817L444.191,368.988ZM529.601,368.242L552.925,453.246L511.773,460.601L529.601,368.242ZM220.431,361.531L245.294,467.191L196.329,451.894L220.431,361.531Z"/>
    </g>
</svg>
